<?xml version="1.0" encoding="utf-8"?>
<!-- Generator: Adobe Illustrator 24.3.0, SVG Export Plug-In . SVG Version: 6.00 Build 0)  -->
<svg version="1.1" id="Capa_1" xmlns="http://www.w3.org/2000/svg" xmlns:xlink="http://www.w3.org/1999/xlink" x="0px" y="0px"
	 viewBox="0 0 940 140" style="enable-background:new 0 0 940 140;" xml:space="preserve">
<style type="text/css">
	.st0{fill:url(#SVGID_1_);}
	.st1{fill:url(#SVGID_2_);}
	.st2{fill:url(#SVGID_3_);}
	.st3{fill:url(#SVGID_4_);}
	.st4{fill:url(#SVGID_5_);}
	.st5{fill:#245C4F;}
	.st6{fill:#FFFFFF;}
	.st7{fill:#C0A06A;stroke:#285C4D;stroke-width:0.3499;stroke-miterlimit:10;}
	.st8{fill:none;stroke:#FFFFFF;stroke-width:4.1993;stroke-miterlimit:10;}
	.st9{fill:none;stroke:#A8A8A8;stroke-width:4.0903;stroke-linecap:round;stroke-linejoin:round;stroke-miterlimit:10;}
	.st10{fill:none;stroke:#A8A8A8;stroke-width:4.1433;stroke-linecap:round;stroke-linejoin:round;stroke-miterlimit:10;}
	.st11{fill:#A8A8A8;}
	.st12{fill:#285C4D;}
	.st13{fill:#22242B;}
	.st14{fill:#219FB2;stroke:#FFFFFF;stroke-width:1.3998;stroke-miterlimit:10;}
	.st15{clip-path:url(#SVGID_7_);}
	.st16{fill:#C0A06A;}
	.st17{fill:url(#SVGID_8_);}
	.st18{fill:none;stroke:#FFFFFF;stroke-width:2.7995;stroke-miterlimit:10;}
	.st19{fill:none;stroke:#FFFFFF;stroke-width:2.7995;stroke-linecap:round;stroke-linejoin:round;}
	.st20{fill:#7A4A4A;}
	.st21{fill:#23A0B3;}
	.st22{clip-path:url(#SVGID_10_);}
	.st23{opacity:0.1;fill:#FFFFFF;}
	.st24{fill:url(#SVGID_11_);}
	.st25{fill:url(#SVGID_12_);stroke:url(#SVGID_13_);stroke-width:1.3666;stroke-miterlimit:10;}
	.st26{fill:#FFFFFF;stroke:#C0A06A;stroke-width:1.0444;stroke-miterlimit:10;}
	.st27{fill:none;stroke:#FFFFFF;stroke-width:4.3141;stroke-miterlimit:10;}
	.st28{fill:none;stroke:#FFFFFF;stroke-width:4.3141;stroke-linecap:round;stroke-linejoin:round;}
	.st29{opacity:0.15;}
	.st30{fill:#C0A06A;stroke:#FFFFFF;stroke-width:0.5;stroke-miterlimit:10;}
	.st31{fill:#BD9558;stroke:#FFFFFF;stroke-width:0.5;stroke-miterlimit:10;}
	.st32{fill:url(#SVGID_14_);}
	.st33{fill:url(#SVGID_15_);}
	.st34{fill:url(#SVGID_16_);}
	.st35{fill:url(#SVGID_17_);}
	.st36{fill:url(#SVGID_18_);}
	.st37{fill:#FFFFFF;stroke:#BD9558;stroke-width:3.7005;stroke-miterlimit:10;}
	.st38{fill:#BD9558;}
	.st39{fill:url(#SVGID_23_);}
	.st40{fill:#FFFFFF;stroke:#BD9558;stroke-width:0.5978;stroke-miterlimit:10;}
	.st41{opacity:0.2;fill:#D9C9A7;stroke:#A8A8A8;stroke-width:2;stroke-miterlimit:10;}
	.st42{fill:url(#SVGID_24_);}
	.st43{fill:url(#SVGID_25_);}
	.st44{fill:url(#SVGID_26_);}
	.st45{fill:url(#SVGID_27_);}
	.st46{fill:url(#SVGID_28_);}
	.st47{fill:url(#SVGID_31_);}
	.st48{clip-path:url(#SVGID_33_);}
	.st49{fill:url(#SVGID_34_);}
	.st50{fill:url(#SVGID_35_);stroke:url(#SVGID_36_);stroke-width:1.3666;stroke-miterlimit:10;}
	.st51{fill:#FFFFFF;stroke:#BD9558;stroke-width:0.5124;stroke-miterlimit:10;}
	.st52{opacity:0.7;fill:url(#SVGID_39_);}
	.st53{fill:#FFFFFF;stroke:#7A4A4A;stroke-miterlimit:10;}
	.st54{opacity:0.7;fill:url(#SVGID_42_);}
	.st55{fill:#18312D;}
	.st56{fill:#325A4F;}
	.st57{fill:#FFFFFF;stroke:#23A0B3;stroke-miterlimit:10;}
	.st58{fill:#FFFFFF;stroke:#7A4A4A;stroke-width:3.7005;stroke-miterlimit:10;}
	.st59{fill:#FFFFFF;stroke:#23A0B3;stroke-width:3.7005;stroke-miterlimit:10;}
	.st60{fill:#FFFFFF;stroke:#A8A8A8;stroke-width:2.0823;stroke-miterlimit:10;}
	.st61{fill:#FFFFFF;stroke:#A8A8A8;stroke-width:1.6394;stroke-miterlimit:10;}
	.st62{fill:none;stroke:#A8A8A8;stroke-width:1.6394;stroke-miterlimit:10;}
	.st63{fill:#009245;}
	.st64{opacity:0.2;clip-path:url(#SVGID_68_);fill:#D9C9A7;stroke:#A8A8A8;stroke-width:2;stroke-miterlimit:10;}
	.st65{clip-path:url(#SVGID_68_);}
	.st66{fill:url(#SVGID_69_);}
	.st67{fill:url(#SVGID_70_);}
	.st68{fill:url(#SVGID_71_);}
	.st69{fill:url(#SVGID_72_);}
	.st70{fill:url(#SVGID_73_);}
	.st71{clip-path:url(#SVGID_68_);fill:#FFFFFF;}
	.st72{clip-path:url(#SVGID_68_);fill:#C0A06A;stroke:#285C4D;stroke-width:0.3499;stroke-miterlimit:10;}
	.st73{clip-path:url(#SVGID_68_);fill:url(#SVGID_76_);}
	.st74{clip-path:url(#SVGID_78_);}
	.st75{opacity:0.1;clip-path:url(#SVGID_68_);fill:#FFFFFF;}
	.st76{fill:url(#SVGID_79_);}
	.st77{fill:url(#SVGID_80_);stroke:url(#SVGID_81_);stroke-width:1.3666;stroke-miterlimit:10;}
	.st78{opacity:0.7;clip-path:url(#SVGID_68_);fill:url(#SVGID_84_);}
	.st79{opacity:0.7;clip-path:url(#SVGID_68_);fill:url(#SVGID_87_);}
	.st80{opacity:0.2;clip-path:url(#SVGID_95_);fill:#D9C9A7;stroke:#A8A8A8;stroke-width:2;stroke-miterlimit:10;}
	.st81{clip-path:url(#SVGID_95_);}
	.st82{fill:url(#SVGID_96_);}
	.st83{fill:url(#SVGID_97_);}
	.st84{fill:url(#SVGID_98_);}
	.st85{fill:url(#SVGID_99_);}
	.st86{fill:url(#SVGID_100_);}
	.st87{clip-path:url(#SVGID_95_);fill:#FFFFFF;}
	.st88{clip-path:url(#SVGID_95_);fill:#C0A06A;stroke:#285C4D;stroke-width:0.3499;stroke-miterlimit:10;}
	.st89{clip-path:url(#SVGID_95_);fill:url(#SVGID_103_);}
	.st90{clip-path:url(#SVGID_105_);}
	.st91{opacity:0.1;clip-path:url(#SVGID_95_);fill:#FFFFFF;}
	.st92{fill:url(#SVGID_106_);}
	.st93{fill:url(#SVGID_107_);stroke:url(#SVGID_108_);stroke-width:1.3666;stroke-miterlimit:10;}
	.st94{opacity:0.7;clip-path:url(#SVGID_95_);fill:url(#SVGID_111_);}
	.st95{opacity:0.7;clip-path:url(#SVGID_95_);fill:url(#SVGID_114_);}
	.st96{clip-path:url(#SVGID_122_);}
	.st97{fill:url(#SVGID_123_);}
	.st98{fill:url(#SVGID_124_);}
	.st99{fill:url(#SVGID_125_);}
	.st100{fill:url(#SVGID_126_);}
	.st101{fill:url(#SVGID_127_);}
	.st102{clip-path:url(#SVGID_122_);fill:#FFFFFF;}
	.st103{clip-path:url(#SVGID_122_);fill:#C0A06A;stroke:#285C4D;stroke-width:0.3499;stroke-miterlimit:10;}
	.st104{clip-path:url(#SVGID_122_);fill:url(#SVGID_130_);}
	.st105{opacity:0.7;clip-path:url(#SVGID_122_);fill:url(#SVGID_133_);}
	.st106{opacity:0.7;clip-path:url(#SVGID_122_);fill:url(#SVGID_136_);}
	.st107{fill:#FFFFFF;stroke:#325A4F;stroke-width:0.9859;stroke-miterlimit:10;}
	.st108{fill:url(#SVGID_143_);}
	.st109{fill:url(#SVGID_144_);}
	.st110{fill:url(#SVGID_145_);}
	.st111{opacity:0.4;}
	.st112{fill:#FFFFFF;stroke:#BD9558;stroke-width:0.4804;stroke-miterlimit:10;}
	.st113{fill:none;stroke:#22242B;stroke-miterlimit:10;}
	.st114{fill:#009245;stroke:#FFFFFF;stroke-width:3.5;stroke-miterlimit:10;}
	.st115{fill:none;stroke:#000000;stroke-width:3.5;stroke-miterlimit:10;}
	.st116{fill:none;stroke:#009245;stroke-width:5;stroke-miterlimit:10;}
	.st117{fill:none;stroke:#009245;stroke-width:3.9157;stroke-miterlimit:10;}
	.st118{fill:#009245;stroke:#FFFFFF;stroke-width:0.25;stroke-miterlimit:10;}
	.st119{fill:none;stroke:#000000;stroke-width:2;stroke-miterlimit:10;}
	.st120{fill:none;stroke:#009245;stroke-width:3.7214;stroke-miterlimit:10;}
	.st121{fill:none;stroke:#000000;stroke-width:3;stroke-miterlimit:10;}
	.st122{stroke:#000000;stroke-width:0.5;stroke-miterlimit:10;}
	.st123{fill:url(#SVGID_146_);}
	.st124{filter:url(#Adobe_OpacityMaskFilter);}
	.st125{clip-path:url(#SVGID_148_);fill:url(#SVGID_150_);}
	.st126{clip-path:url(#SVGID_148_);mask:url(#SVGID_149_);fill:#245C4F;}
	.st127{clip-path:url(#SVGID_152_);}
	.st128{fill:url(#SVGID_153_);}
	.st129{filter:url(#Adobe_OpacityMaskFilter_1_);}
	.st130{clip-path:url(#SVGID_155_);fill:url(#SVGID_157_);}
	.st131{clip-path:url(#SVGID_155_);mask:url(#SVGID_156_);fill:#245C4F;}
</style>
<g>
	<defs>
		<rect id="SVGID_151_" x="0.56" y="-0.05" width="940" height="140"/>
	</defs>
	<clipPath id="SVGID_1_">
		<use xlink:href="#SVGID_151_"  style="overflow:visible;"/>
	</clipPath>
	<g style="clip-path:url(#SVGID_1_);">
		<linearGradient id="SVGID_2_" gradientUnits="userSpaceOnUse" x1="11.5556" y1="159.2758" x2="927.9443" y2="-413.3474">
			<stop  offset="0" style="stop-color:#22242B"/>
			<stop  offset="0.2091" style="stop-color:#233A39"/>
			<stop  offset="0.4638" style="stop-color:#234D45"/>
			<stop  offset="0.7249" style="stop-color:#24584D"/>
			<stop  offset="1" style="stop-color:#245C4F"/>
		</linearGradient>
		<rect x="-0.56" y="-393.95" class="st1" width="940.63" height="533.84"/>
		<g>
			<defs>
				<path id="SVGID_154_" d="M73.86,137.06c-0.46,0.66-0.8,1.41-1.05,2.23h11.52c-0.18-0.41-0.36-0.81-0.54-1.21
					c-1.72-2.35-4.04-3.56-5.84-3.56C75.81,134.52,74.57,135.86,73.86,137.06 M291.48,132.95c-1.02,1.67-1.38,3.91-1.16,6.34h18.45
					c-2.38-2.23-4.81-4.53-7.27-6.92c-1.99-1.36-3.89-2.08-5.61-2.08C293.99,130.3,292.38,131.17,291.48,132.95 M326.67,125.28
					l0.71,3.39c3.26,3.88,6.79,7.42,10.54,10.62h20.32c-0.87-1.2-1.81-2.4-2.81-3.58c-4.44-4.9-8.54-7.65-14.63-9.63
					c-3.75-1.36-7.39-2.06-10.41-2.06C328.07,124.03,327.05,124.73,326.67,125.28 M94.07,107.57c-3.03,4.92-4.31,14.63-1.95,20.03
					l6.53,11.69h17.52l-16.75-29.88c-1.44-3.29-2.87-4.11-2.95-4.11C96.04,105.31,95.05,105.71,94.07,107.57 M374.63,106.79
					c-0.92,3.58-0.5,5.04,1.61,8.71c4.77,8.7,9.73,16.62,14.89,23.8h27.93c-3.28-3.18-6.36-6.37-9.26-9.57
					c-6.97-8.67-12.69-17.89-19.7-31.18c-1.21-2.38-2.03-4.15-4.9-4.94C381.35,93.77,376.05,100.26,374.63,106.79 M807.33,81.07
					c-3.48,0-6.28,1.06-7.7,2.84v6.21c6.19,15.53,11.66,31.94,16.39,49.18h15.92v-24.12c-3.29-9.47-6.87-18.88-10.75-28.2
					c-1.98-3.42-7.47-5.93-13.24-5.93C807.74,81.06,807.53,81.06,807.33,81.07 M416.79,84.62l0.1,1.97
					c15.56,24.15,29.52,41.19,49.64,51.26l4.71,1.06l1.72-0.51c0.44-0.49,0.11-2.54-3.14-5.57c-15.45-13.8-23.7-28.36-33.73-47.27
					c-2.49-4.49-7.75-4.94-9.84-4.94C421.63,80.83,417.78,82.76,416.79,84.62 M202.63,80.14l-0.46,4.45l20.41,31.82l3.35,1.8
					l3.69-2.16c0.92-1.65,1-3.6,0.33-5.57l-17.86-31.5l-3.56-2.08C206.27,76.93,203.95,78.27,202.63,80.14 M101.21,79.07
					c-1.86,3.05-1.57,8.1,0.67,13.27c11.11,16.17,21,31.72,29.86,46.96h18.11c-10.92-18.42-23.92-38.37-39.13-60.08
					c-1.53-1.76-3.5-2.73-5.3-2.73C103.7,76.48,102.04,77.45,101.21,79.07 M225.37,63.55c-1.36,2.16-1.09,5.59,0.36,8.67L248,98.23
					c3.83,3.77,5.61,7.78,5.38,11.89c-0.27,8.29-7.79,14.97-15.03,21.35l-0.71,0.81c-2.77,2.31-5.55,4.69-7.76,7.02h23.3l11.19-9.52
					c8.67-7.1,10.2-16.09,4.46-27.18l-35.49-40.98l-3.39-0.85C228.07,60.77,226.31,61.83,225.37,63.55 M731.99,58.25
					c-0.36,0.32-0.94,1.36-0.57,4.2c4.36,29.98,15.19,55.3,32.77,76.85h14.02l-10.06-24.02c-2.49-5.79-4.06-9.96-4.59-16.05
					l-1.7-16.89c-0.44-3.75-1.11-5.64-2.97-9.01c-4.81-7.8-10.61-12.53-18.42-14.67c-2.43-0.68-4.38-1.04-6.09-1.04L731.99,58.25z
					 M523.66,58.05l-0.36,3.01c8.83,30.08,22.32,53.19,41.58,70.55l4.92,2.69l1.28-0.78c0.31-1.12,0.31-3.39-1.53-6.95
					c-12.37-16.94-20.96-37.73-26.57-63c-1.28-6.42-7.29-8.5-11.93-8.5C527.32,55.29,524.6,56.75,523.66,58.05 M480.34,52.3
					c-1.99,0.04-3.68,1.17-5.21,3.39c-3.79,4.88-4.56,12.91-2.51,20.14c9.95,25.37,21.4,46.28,34.02,62.55
					c0.23,0.31,0.47,0.61,0.7,0.91h30.12c-15.9-19.27-30.45-43.16-43.45-71.48c-4.34-9.7-9.6-15.52-13.59-15.52
					C480.39,52.3,480.36,52.3,480.34,52.3 M619.75,34.52c-2.41,0-4.23,0.64-5.3,1.93c-1.15,1.5-1.53,3.84-0.88,6.7
					c9.46,42.02,25.33,73.26,46.71,92.8l0.52,0.4c1.63,1.62,2.74,2.58,4.24,2.94h1.46l1.11-0.42c0.27-0.49,0.57-2.01,0-5.64
					c-0.71-3.86-2.24-6.68-4.65-10.56c-9.3-16.83-15.28-30.95-18.32-43.39l-4.78-24.99c-1.26-5.64-2.2-8.8-5.32-12.27
					c-3.92-4.36-9.68-7.52-14.32-7.52C620.07,34.5,619.91,34.51,619.75,34.52 M570.6,37.85c-0.96,5.91-0.25,9.71,1.55,15.41
					c10.89,35.93,23.5,64.05,38.68,86.03h25.68c-16.99-23.63-32.39-54.12-49.03-96.04c-3.43-13.63-8.33-17.19-10.51-17.19
					C574.72,26.13,571.75,30.18,570.6,37.85 M668.76,27.97c-1.49,2.23-3.39,5.81-2.41,9.94l27.76,95.52
					c0.73,1.98,1.56,3.93,2.46,5.87h32.95c-10.12-17.32-17.15-33.57-21.8-50.47c-1.36-4.49-2.4-9.22-3.66-14.56
					c-1.51-6.36-3.06-11.93-4.75-17.47L689.2,23.79c-1.7-2.61-4.5-3.2-6.55-3.2C677.56,20.74,672.01,23.73,668.76,27.97
					 M261.15,15.73c0,3.07,2.43,5.77,6.45,10.03c12.16,13.44,21.02,22.15,31.93,32.77c3.33,2.52,6.36,2.88,7.81,2.88
					c3.39-0.09,6.2-1.89,7.43-4.26c1.21-3.05,0.36-6.74-2.85-10.47c-11.28-14.05-23.76-25.86-38.42-36.12
					c-1.78-1.21-3.77-1.82-5.3-1.82C263.89,8.77,261.15,12.51,261.15,15.73 M135.33,10.84c-1.61,3.22-1.88,7.97,0.65,11.53
					c19.01,26.96,33.81,55.58,46.17,90.09c1.8,4.79,1.97,8.84,0,11.81l-2.35,1.93l-1.05,0.25h-0.84c-3.39,0.11-6.53-2.65-8.83-7.38
					c-10.85-23.68-24.75-46.66-42.25-70.1l-3.41-2.46l-2.68,2.08c-1.61,2.48-2.72,7.91-0.11,14.25
					c12.82,16.81,28.47,43.31,42.08,66.67l2.07,3.33c1.28,2.2,2.54,4.36,3.77,6.47h32.9c-8.68-37.22-29.99-80.29-64.68-130.64
					L135.33,10.84z M25.78-7.98c-1.05,0.06-2.95,1.82-2.95,4.92c0.9,31.73,3.87,54.44,10.49,78.46l4.1,1.93
					c1.59,0,3.06-4.26,3.06-6.91c-4.65-24.59-7.89-47.31-9.97-71.27c-1.35-5.5-3.43-7.13-4.64-7.13
					C25.84-7.98,25.81-7.98,25.78-7.98 M291.24-5.06c-1.15,1.84-1.82,4.86-0.65,6.66c28.01,28.66,41.87,44.96,46,54.18
					c2.79,7.48,2.16,14.63-1.78,20.58c-4.42,6.38-12.29,10.41-20.66,10.54c-4.75,0.08-8.98-1.17-13.17-3.56
					c-13.94-10.28-28.75-24.74-45.56-43.52l-2.78-0.81c-1.65,0-3.29,1.1-4.35,3.01c-1.36,2.61-1.28,6.06,0,8.69
					c17.19,23.83,36.43,41.23,57.28,51.51c4.27,1.78,9.44,2.65,14.74,2.52c15.05-0.3,29.71-7.46,36.68-17.98
					c5.03-7.67,5.86-16.68,2.26-25.61c-15.83-23.89-36.14-47.04-60.87-68.85l-2.85-0.95C293.98-8.64,292.28-7.37,291.24-5.06
					 M178.91-13.19c-1.15,2.12-1.28,4.83-0.48,6.49l16.96,16.36l1.8,0.47c2.26,0,4.37-1.48,5.36-3.52c0.9-2.06,0.61-4.01-0.46-5.96
					l-16.2-16.07l-2.39-0.85C181.76-16.27,179.9-15.06,178.91-13.19 M43.15-20.24c-2.43,3.71-2.87,12.25-1.4,20.26
					c11.7,34.26,15.91,62.37,13.77,91.24c-2.4,10.49-9.88,17.4-18.65,17.53c-7.28,0.09-13.48-4.51-16.43-12.36
					c-8.33-32.26-8.86-60.86-8.42-86.57C10.92,4.2,6.82,2.27,3.22,2.27C2.34,2.3,1.45,2.49,0.62,2.81v86.11
					c2.81,14.06,7.18,27.63,13.98,40.1c5.74,6.7,12.71,10.28,20.14,10.03c14.22-0.13,29.06-13.76,39.45-36.29
					c8.73-30.97,0.73-69.47-25.15-120.96l-3.94-2.35L43.15-20.24z M200.48-40.4c-1.8,3.69-2.51,9.31,0.27,13.4L214.9-8.11
					c3.31,7.19,2.41,16.9-2.18,24.34c-3.58,6.47-9.57,10.13-15.85,10.32c-4.02,0.08-8.08-1.51-12.4-4.66L166.03,1.24l-4.65-1.44
					c-1.7,0.06-3.23,0.97-4.23,2.8c-1.24,2.42-1.87,6.85,0.63,11.76l30.61,35.8c3.18,3.31,7.08,4.83,11.72,4.77
					c11.81-0.15,27.11-12.04,35.64-27.75c6.41-11.85,7.51-23.07,2.95-30.84c-12.77-18.95-22.76-31.63-31.43-38.9l-2.62-1.68
					C203.32-44.23,201.75-42.67,200.48-40.4 M92.92-55.42c-0.19,10.43,3.12,18.29,6.43,26.64l0.57,0.85
					c3.48,8.31,7.14,17.17,6.83,29.27c-1.47,7.93-6.74,8.92-9,8.97c-1.7,0-3.67-0.36-5.17-1.15C84.23,8.47,79.12-7.68,77.8-14.7
					c-0.62-3.05,4.27-7.5,5.64-5.53c2.03,3.2,4.37,5.83,5.63,5.05c5.09,0.59-3.85-21.94-3.85-21.94c-1.97-2.4-5.25-2.4-7.52-2.4
					c-2.49,0.09-5.47,1.31-9.57,4.09c-4.31,1.85-6.83,4.79-4.31,12.78c3.87,22.34,13.55,43.12,28.54,61.67
					c1.88,1.5,4.12,2.37,6.01,2.37c3.29-0.15,6.91-2.55,10.51-6.87c15.53-33.36,11.87-63.95-11.06-93.02
					c-2.05-2.1-3.33-2.37-3.33-2.37C94.15-60.64,93.27-59.28,92.92-55.42 M326.68-51.94l74.27,71.08l5.19,1.8l3.75-1.72l0.46-2.71
					c-25.69-36.14-53.37-62.87-86.99-84.16C322.37-63.11,323.1-55.92,326.68-51.94 M123.25-74.6c-0.8,1-0.27,2.25,0.79,4.3
					c1.86,3.63,5.28,7.44,9.15,12.02c8.17,9.43,18.32,21.05,6.18,33.37c-3.31,2.27-3.39,3.24-0.48,7.72
					c2.72,4.22,5.36,6.09,9.15,6.09c2.93-0.17,6.18-1.25,9.57-3.22l15.91-20.37l1.72-4.68c-0.34-0.3-0.63-1.1-2.93-1.1
					c-9.95-0.79-16.77-10.05-23.18-18.44c-5.38-7.02-10.91-14.16-17.78-16.89l-3.98-0.7C125.39-76.53,123.69-75.82,123.25-74.6
					 M236-80.15c-0.88,2.31-0.17,4.88,2.07,7.06l14.28,10.77l3.81,1.38c2.41-0.04,3.66-2.59,4.19-3.58c0.71-2.38,0.52-5.77-2.05-8.1
					l-14.03-10.79l-2.45-0.66C239.39-84.03,236.9-82.38,236-80.15 M348.65-84.83c-1.05,3.29-0.04,7.23,3.04,10.41
					c30.82,24.95,56.89,53.23,77.24,84.43c4.04,7.1,4.67,14.08,1.38,19.97c-3.16,5.79-9.97,9.22-18.26,9.43
					c-5.65,0.04-11.75-1.63-17.73-4.9c-25.86-16.58-50.23-41.02-73.7-64.53l-5.15-5.11c-1.07,0.38-2.38,1.53-3.54,3.92
					c-1.72,3.48-2.56,8.75-0.32,12.1c40.81,45.66,68.55,71.23,82.2,76.12c11.52,2.5,21.69,3.9,30.21,3.75
					c12.35-0.19,20.94-3.48,25.5-9.6c5.38-7.57,5.72-20.2,0.92-37.2c-7.73-18.93-40.58-55.54-90.05-100.42
					c-2.18-1.29-4.19-2.01-5.99-2.01C351.69-88.37,349.95-86.95,348.65-84.83 M254.72-108c-1.72,4.15-1.11,10.09,1.49,12.82
					l20.5,22.09c3.87,6.21,3.79,14.75-0.42,22.15c-3.69,7.08-10.05,11.62-16.48,11.7c-3.31,0.06-6.43-0.83-9.32-2.97l-22.26-16.56
					l-3.33-1.85c-1.97,0-4.04,2.27-5.02,5.53c-0.77,2.48-1.38,7.65,1.91,10.22l40.35,30.25c2.79,1.65,5.3,2.37,8.04,2.37
					c4.92-0.09,10.66-3.16,16.48-8.59l5.26-8.71c10.68-17.17,18.38-29.59,6.05-47.82c-10.55-12.99-21.67-25.46-39.55-33.94
					C256.78-111.11,255.61-109.99,254.72-108 M170.68-127.71c-0.46,0.8-1.87,3.52-0.21,6.19l19.26,20.54
					c2.78,4.66,2.95,10.28,0.36,14.8c-2.49,4.71-7.35,7.86-12,7.95c-2.66,0.04-4.9-0.72-6.97-2.33L151.8-95.64l-3.94-0.91
					c-2.6,0-4.48,1.99-5.25,3.79c-0.82,2.33-0.67,4.56,0.61,6.28c8.67,11.32,18.07,21.03,28.89,29.68c3.77,2.92,6.89,4.22,9.94,4.16
					c2.83,0,5.55-1.23,8.12-3.37c5.03-6.53,10.13-11.57,15.66-17.19c8.52-7.99,16.48-15.6,20.69-27.73
					c0.71-5.05,0.19-6.85-0.27-7.33c-0.52-0.64-1.42-1-5.74-1c-16.56-0.95-27.83-10.94-39.63-21.56l-3.6-1.34
					C174.53-132.16,172.02-130.32,170.68-127.71 M374.12-159.68c-1.91,3.2-2.37,8.03-1.26,10.15
					c40.16,45.45,83.37,88.34,128.07,127.15l3.16,1.19l2.72-1.61c0.96-1.44,0.52-3.6-0.63-5.64
					c-37.16-47.89-81.15-92.64-130.82-133.04L374.12-159.68z M6.24-158.76L2.34-66.83c0.36,3.27,2.22,3.44,3.23,3.44
					c1.42,0,3.41-1.12,4.19-4.58c6.91-23.66,8.19-53.65,3.96-91.55c-0.9-4.15-2.53-6.06-3.12-6.06
					C9.5-165.59,7.1-163.06,6.24-158.76 M276.78-168.79l0.1,5.55L300-144.24l2.41,0.3c2.87-0.04,5.3-1.78,6.36-4.54
					c1.01-2.54,0.33-5.62-1.7-7.44l-26.59-15.41L276.78-168.79z M36.63-176.63l-4.15,2.2c-1.89,2.16-3.14,5.45-2.91,8.9
					c2.05,37.46,2.72,79.32-7.81,105.8C14.44-47.44,7.14-39.61,0.62-37.29v22.68C14.5-17.86,29.99-30.3,36.72-50.92
					c9.09-43.97,8.04-82.7,5.8-114.66c-0.54-6.79-2.83-11.04-5.84-11.04C36.66-176.63,36.65-176.63,36.63-176.63 M396.18-182.95
					c-1.78,3.48-1.59,9.92,0.79,13.8C443.7-125.74,489.2-81.92,531.7-23.2c5.23,7.14,6.53,14.8,3.18,21.69
					c-3.18,6.82-11.16,11.53-19.51,11.78c-5.9,0.04-11.41-2.18-15.72-6.15c-30.8-26.92-59.88-57.78-87.98-87.74
					c-12.25-12.99-25.04-26.73-36.83-38.88l-3.27-1.46l-3.39,3.26c-2.14,4.37-2.49,11.6,0.08,15.26l91.02,98.61
					c13.99,16.09,29.15,27.56,45.02,34c7.26,1.4,14.24,2.25,20.69,2.01c13.25-0.11,22.7-4.16,28.01-11.36
					c5.53-7.76,6.16-19.35,1.84-33.26c-38.25-67.37-90.03-115.53-155.77-167.72l-1.07-0.7L396.18-182.95z M62.92-185.8
					c-2.16,2.52-3.18,6.38-2.85,10.73l0.69,19.14c0.23,9.69,0.54,19.35,0.9,29.02c0.19,9.35,0.44,18.63,0.65,27.77
					c2.43,16.36-2.85,23.68-7.77,30.29l-0.4,0.64c-2.39,3.22-4.63,6.45-5.99,10.26c-2.51,12.91-0.9,16.03-0.38,16.68l0.92,0.06
					c0.82,0,2.35-0.25,4.56-1.36C71.34-60.09,79.5-76.33,78.24-93.75l-5.13-85.89c-1.07-5.13-3.5-8.27-5.97-8.27L62.92-185.8z
					 M96.23-197.49c-2.16,0.04-5.19,0.72-8.63,1.82c-3.16,1.57-5.26,4.07-5.26,6.55c0,2.67,2.66,5.38,6.53,7.1
					c2.57,0.42,5,0.62,7.16,0.62c7.66-0.15,8.31-2.88,8.31-5.05c-0.63-10.88-5.7-11.04-7.93-11.04
					C96.36-197.49,96.29-197.49,96.23-197.49 M279.48-204.08c-1.32,2.78-0.98,8.33,2.18,12.74c16.54,12.8,33.27,26.2,41.96,37.25
					c6.26,7.14,6.26,17.11,3.58,23.49c-2.45,5.51-6.72,8.5-11.72,8.71c-3.64,0.04-7.18-1.4-10.66-4.2l-32.58-20.29
					c-1.7,0.28-3.02,1.74-4.04,4.03c-1.51,3.9-1.51,9.37,1.89,12.63l40.28,29.7c4.56,2.97,8.86,4.45,12.73,4.45
					c3.39-0.06,6.87-1.21,10.01-3.5c7.2-5.66,13.42-14.52,18.26-26.03c4.84-16.89,0.61-29.53-13.04-38.86l-54.52-40.4l-2.49-1.02
					L279.48-204.08z M0.62-181.74c1.94-3.89,2.77-8.2,2.6-13.09c-0.63-6.34-1.5-12.55-2.6-18.63V-181.74z M204.86-219.74
					c-1.86,7.67-0.99,12.44,2.87,15.58l18.32,15.09c7.2,8.18,7.54,18.72,4.56,25.31c-2.14,5.15-6.34,8.18-11.18,8.44
					c-4.29,0-8.73-2.27-13.23-6.91c-1.34-1.97-2.51-2.84-3.58-2.84c-0.27,0-1.61,0.11-4.1,2.71c-9.57,8.67-7.54,14.39-4.73,18.19
					c12.33,12.8,22.53,18.95,31.05,18.91c6.6-0.19,12.48-4.43,17.96-12.78c5.89-12.3,10.14-28.3,12-47.51
					c0.44-3.58-0.06-6.25-1.26-7.8c-1.19-1.08-4.59-2.21-6.7-2.99l-1.26-0.42l-3.51-1.38c-12.86-5.94-23.87-14.08-36.66-23.53
					L204.86-219.74z M84.6-220.7c-0.46,2.35,0.25,4.79,2.24,6.36l19.14,4.05c5.03,1.78,9.74,5.19,11.08,8.99
					c1.99,4.92,0,17.74-5.49,26.8c-13.76,17.42-20.62,18.25-17.82,29.44c0.42,5.19,2.47,5.19,3.54,5.19l3.22-0.55
					c19.89-13.71,31.59-30.42,35.34-49.65c1.34-11.23-0.27-19.65-5.09-25.61c-5.55-6.61-15.56-10.3-30.59-11.34l-3.96-0.36
					C89.77-227.23,85.56-223.95,84.6-220.7 M418.12-284.15c-1.7,6.32,2.41,20.22,8.42,24.31c64.7,58.72,133.41,124.47,200.29,224.55
					c4,7.4,4.65,13.02,2.3,17.07c-1.51,2.5-4.08,3.9-7.05,3.9c-6.01,0.04-13.07-4.79-18.8-12.68
					c-54.21-81.44-125.65-148.26-188.65-204.61l-2.51-1.65l-1.67,2.23c-3.06,5.79-2.78,18.12,1.53,24.27
					c42.04,34.15,87.75,87.87,128.05,135.31l1.51,1.59c28.64,33.9,53.56,63.02,69.76,76.38c8.61,5.11,17.65,7.85,26.02,7.61
					c8.46,0,15.83-3.37,19.93-8.9c3.94-5.34,5-12.06,3.33-19.5c-50.86-98.97-128.01-186.27-236.01-267.16
					c-2.35-2.27-3.85-3.2-4.94-3.2L418.12-284.15z M0.62-266.79c4.74,11.25,9.19,23.07,13.53,35.53c4.29,8.69,9.4-2.92,8.48-6.23
					c-4.38-15-13.06-33.4-22.01-48.89V-266.79z M268.21-278.69c16.5,14.97,37.69,29.78,65.2,45.34l4.63,0.83
					c4.29-0.06,9.13-2.12,8.25-3.28c-9.23-14.14-81.11-50.81-81.11-50.81C265.53-284.31,266.45-280.84,268.21-278.69 M85.94-290.11
					c-3.85,1.63-6.28,3.18-6.74,4.64c-0.88,1.91,0.38,4.66,2.43,7.31c6.72,5.11,10.11,5.57,11.37,5.57c0.52,0,2.43,0,4.21-2.52
					c0.77-8.61-1.34-12.29-3.12-13.72c-0.84-0.51-2.15-1.31-7.04-1.31C86.69-290.13,86.32-290.12,85.94-290.11 M78.32-312.67
					c-0.06,2.25,2.68,5.34,3.81,5.59c20.87,0.68,28.75,12.91,28.58,39.87c-2.71,12.19-7.66,12.19-11.97,12.19c-0.26,0-0.51,0-0.76,0
					c-3.75,0.09-7.75-0.97-12.04-3.22c-3.87-0.89-6.11,1.38-6.64,2.31c-0.46,0.57-0.65,1.95,0.27,4.13
					c0.5,3.07,15.47,11.32,28.79,11.09c3.98,0,6.38-0.83,8.29-2.48c8.19-6.13,10.45-17.79,6.3-36.55
					c-3.62-24.44-16.81-36.55-39.72-37.25C80.31-316.91,78.32-314.69,78.32-312.67 M184.22-320.82c-0.38,0.85-0.9,3.03,0.77,4.92
					l14.57,11.47c22.49,7.06,28.68,22.15,27.15,33.03c-1.19,8.92-7.6,15.5-15.14,15.6c-5.03,0.06-10.39-2.42-16.98-7.93
					c-0.37,2.25-0.31,5.72,1.57,10.24c11.93,20.54,29.35,29.55,41.46,29.32c5.65-0.04,9.95-2.12,12.17-5.68
					c3.58-5.28,3.22-13.31-0.84-23.47c-12.48-25.1-14.11-45.66-13.94-62.45c0-4.2-0.9-5.51-2.14-6.59c-2.07,0.32-5.53,2.4-6.8,3.2
					c-4.63,2.1-9.02,3.14-13.78,3.26c-8.33,0.13-15.68-3.1-25.06-7.63L184.22-320.82z M0.62-314.4
					c16.42,18.92,29.53,41.07,37.86,75.18c0.71,6.46,1.36,13.63-4.92,22.13l-2.95,2.69c-3.2,2.8-6.53,6.17-9.11,9.47
					c-2.28,2.65-2.72,6.08-1.15,9.26c1.76,3.86,5.7,6.15,10.01,6.11l2.14-0.08l0.52-0.13l33.73-26.27
					c2.34-2.06,4.06-5.83,4.06-10.11c0-3.71-1.26-6.53-2.18-7.42c-16.08-10.47-27.11-30.8-39.91-58.91
					c-7.23-13.79-16.9-26.52-28.11-36.67V-314.4z M254.37-327.58c-1.26,3.26,0.44,9.03,4.8,12.44c9.02,6.3,22.19,14.03,37.54,22.9
					c29.6,17.19,60.11,34.89,66.14,47.06c5.07,7.93,5.61,19.2,1.3,27.62c-3.06,5.66-7.87,8.8-13.86,8.97
					c-3.39,0.08-7.16-1.02-11.2-3.26l-66.31-38.75l-1.51-0.81l-0.71,0.27c-0.82,3.73,2.22,14.46,10.03,22.13
					c17.36,13.95,32.5,24.44,47.86,32.94l4.65,2.46c7.22,4.09,18.36,10.41,26.32,10.41c3.77-0.06,7.27-1.29,10.11-3.39
					c15.41-16.18,18.89-46.36,10.91-59.48c-29.88-29.91-69.37-56.39-124.01-83.42L254.37-327.58z M450.82-349.49
					c-0.23,0.74,1.05,3.75,9.17,8.46c71.31,57,160.23,140.52,276.67,327.68c4.06,3.69,9.02,5.89,12.75,5.89
					c1.8,0,3.27-0.7,3.94-1.78c1.9-3.39,0.44-10.66-3.94-19.56c-68-125.83-161.93-233.58-278.74-319.92
					c-3.87-2.06-8.54-3.09-12.62-3.09C453.48-351.82,451.05-350.38,450.82-349.49 M60.06-367.94c-0.19,0.38-0.44,3.26,4.67,9.77
					c1.86,1.89,4.36,4.18,7.06,4.26c2.3,0.15,3.12-2.71,3.2-4.58c0.38-5.07-3.2-10.47-12.08-11.36
					C60.69-369.04,60.17-368.13,60.06-367.94 M499.66-371.72c-0.44,1.36,0.29,4.85,5.34,9.01C619.73-278.7,711.27-158.17,785.03,6.6
					c1.19,6.72,0.46,11.36-1.88,14.41c-1.97,1.93-4.27,3.12-7.16,3.12c-5.21,0.04-12.27-2.8-21.73-8.8
					c-23.97-15.45-45.85-37.31-67.12-66.96c-80.9-132.72-177.65-215.16-262.2-282.08c-2.57-2.29-4.23-3.29-5.76-3.2l-2.28,0.72
					c-0.92,3.63,0.75,11.98,6.87,17.64c79.56,54.75,166.83,155.49,266.59,308.09c34.55,47.63,79.37,70.42,137.1,69.51
					c1.47-0.03,2.97-0.09,4.48-0.15V31.02c-16.34-16.86-28-36.66-34.74-58.91C715.02-203.92,597.2-311.81,513.08-371.02
					c-3.22-1.86-6.26-2.86-9.04-2.86C501.79-373.82,500.2-373.01,499.66-371.72 M47.79-389.92h-3.04c-3.1,0.89-4.21,2.56-4.21,3.16
					c0,0.3,1.91,4.77,9.84,4.83c12.9-0.25,28.23-0.53,38.69,22.41c2.81,6.27,1.51,9.94,0.15,12.21c-2.24,3.58-4.21,4.81-10.97,4.81
					h-0.31l-0.42,4.07c2.97,2.16,6.7,3.43,10.36,3.43c4.84-0.17,9.06-2.12,11.56-5.66c2.95-4.13,3.5-9.92,1.4-16.58
					c-11.64-26.88-28.99-32.7-51.21-32.7C49.02-389.93,48.41-389.92,47.79-389.92 M0.62-392.08v12.62
					c21.4,15.11,36.14,35.37,42.53,64.1c0.71,23.85,5.55,39.36,14.13,45.79l2.1,1.29l0.48-5.3c1.42-59.02-16.88-98.69-54.78-118.5
					H0.62z M104.27-392.08c17.37,19.59,30.29,47.32,40.25,93.69l1.9,8.16c15.93,72.96,25.58,117.05-46.99,176.07
					c-4.96,5.66-4.83,13.61-2.57,18.46c1.68,3.88,4.52,6,8.1,5.89h-0.17h1.26c21.46-9.82,40.12-27.85,57.1-55.01
					c42.36-57.72-4.34-188.54-19.79-231.36c-2.33-5.66-4.94-10.96-7.84-15.91H104.27z M158.96-392.08c1.42,1.63,3.55,3.1,6.35,3.72
					c30.17,0.47,40.89,10.34,40.89,19.4c-0.35,7.74-8.14,13.61-18.97,13.71c-3.92,0.07-7.69-0.4-11.18-1.5l-1.88,0.25
					c0.08,0.81,0.44,1.95,1.59,3.97c9.86,8.82,22.76,14.12,33.5,14.03c7.16-0.19,12.18-2.67,14.76-7.19
					c4.04-7.36,0.98-20.48-7.98-36.1l-1.44-3.05l-0.23-0.85v-1.06c0-0.85,0.15-2.27-2.03-5.33H158.96z M250.85-392.08
					c46.53,19.08,90.66,38.93,124.21,66.4c4.67,4.6,6.2,10.58,4.12,15.75c-1.86,4.66-6.32,7.48-11.89,7.59
					c-3.5,0.09-7.6-0.93-12.62-3.48c-39.36-30.67-78.12-47.4-107.56-58.55l-1.44,2.12c-0.36,3.24,1.34,8.61,7.16,10.73
					c35.09,15.03,72.84,37.39,115.01,68.66c6.28,4.22,11.29,6.04,15.72,6.04c4.86-0.17,9.07-2.9,12.63-8.31
					c8.25-22.66-1.86-43.75-30.8-64.11c-26.03-14.21-56.53-30.28-86.02-42.84H250.85z M329.11-392.08c3.45,1.22,6.55,1.9,9.12,1.85
					c2.01-0.06,3.7-0.63,4.77-1.85H329.11z M437.14-392.08c-0.16,1.14-0.5,2.24-1.04,3.3c-2.85,6.13-11.22,9.18-27.28,9.86
					c-9.57-0.11-16.56-2.94-22.74-9.07l-2.49-4.09h-17.35l-1.95,10.17c-0.48,3.37,0.59,4.77,3.91,5.3
					c17.88,5.91,35.26,8.78,51.69,8.48c26.25-0.39,50.24-8.35,72.9-23.95H437.14z"/>
			</defs>
			<use xlink:href="#SVGID_154_"  style="overflow:visible;fill:#245C4F;"/>
			<clipPath id="SVGID_3_">
				<use xlink:href="#SVGID_154_"  style="overflow:visible;"/>
			</clipPath>
			<defs>
				<filter id="Adobe_OpacityMaskFilter" filterUnits="userSpaceOnUse" x="0.62" y="-392.08" width="831.31" height="531.38">
					<feColorMatrix  type="matrix" values="1 0 0 0 0  0 1 0 0 0  0 0 1 0 0  0 0 0 1 0"/>
				</filter>
			</defs>
			<mask maskUnits="userSpaceOnUse" x="0.62" y="-392.08" width="831.31" height="531.38" id="SVGID_4_">
				<g class="st124">
					
						<linearGradient id="SVGID_5_" gradientUnits="userSpaceOnUse" x1="1293.9221" y1="2373.6548" x2="1294.6013" y2="2373.6548" gradientTransform="matrix(-1976.0942 0 0 -1976.0942 2557770.75 4690439)">
						<stop  offset="0" style="stop-color:#000000"/>
						<stop  offset="0.1415" style="stop-color:#000000"/>
						<stop  offset="0.2004" style="stop-color:#060606"/>
						<stop  offset="0.2791" style="stop-color:#171717"/>
						<stop  offset="0.3691" style="stop-color:#333333"/>
						<stop  offset="0.4674" style="stop-color:#5A5A5A"/>
						<stop  offset="0.5725" style="stop-color:#8C8C8C"/>
						<stop  offset="0.6815" style="stop-color:#C8C8C8"/>
						<stop  offset="0.7716" style="stop-color:#FFFFFF"/>
						<stop  offset="1" style="stop-color:#FFFFFF"/>
					</linearGradient>
					<rect x="0.62" y="-392.08" style="clip-path:url(#SVGID_3_);fill:url(#SVGID_5_);" width="831.31" height="531.38"/>
				</g>
			</mask>
			
				<rect x="0.62" y="-392.08" style="clip-path:url(#SVGID_3_);mask:url(#SVGID_4_);fill:#245C4F;" width="831.31" height="531.38"/>
		</g>
	</g>
</g>
</svg>
